<svg width="61" height="60" viewBox="0 0 61 60" fill="none" xmlns="http://www.w3.org/2000/svg">
<path d="M15.3569 41.246C20.5818 41.246 24.8173 37.0105 24.8173 31.7856C24.8173 26.5608 20.5818 22.3252 15.3569 22.3252C10.1321 22.3252 5.89648 26.5608 5.89648 31.7856C5.89648 37.0105 10.1321 41.246 15.3569 41.246Z" fill="white"/>
<path d="M44.6704 18.9208C49.8952 18.9208 54.1308 14.6853 54.1308 9.46042C54.1308 4.23558 49.8952 0 44.6704 0C39.4455 0 35.21 4.23558 35.21 9.46042C35.21 14.6853 39.4455 18.9208 44.6704 18.9208Z" fill="white"/>
<path fill-rule="evenodd" clip-rule="evenodd" d="M55.8416 43.9506C55.8416 42.7953 56.782 41.8604 57.9346 41.8604C59.09 41.8604 60.0276 42.8008 60.0276 43.9561L60.0192 52.3337C60.0136 56.5673 56.5811 59.9997 52.3448 59.9997H36.9905C35.8351 59.9997 34.8975 59.062 34.8975 57.9067C34.8975 56.7513 35.8351 55.8137 36.9905 55.8137H52.3448C54.2704 55.8137 55.8304 54.2536 55.8332 52.328L55.8416 43.9506Z" fill="#BFCAD6"/>
<path fill-rule="evenodd" clip-rule="evenodd" d="M4.1997 16.0493C4.1997 17.2046 3.25929 18.1396 2.10395 18.1396C0.948606 18.1396 0.0136719 17.1992 0.0136719 16.0438L0.0220986 7.66618C0.0248346 3.43254 3.46011 0 7.69637 0H28.6181C29.7734 0 30.7111 0.93767 30.7111 2.09301C30.7111 3.24836 29.7734 4.18603 28.6181 4.18603H7.69637C5.7708 4.18603 4.21086 5.74597 4.20802 7.67165L4.1997 16.0493Z" fill="#BFCAD6"/>
<path fill-rule="evenodd" clip-rule="evenodd" d="M24.4213 40.0239C28.2334 42.8202 30.7115 47.3328 30.7115 52.4174C30.7115 54.5913 29.3413 56.4862 26.8213 57.7894C24.0391 59.2294 19.7023 59.9997 15.3572 59.9997C11.0093 59.9997 6.67258 59.2294 3.89022 57.7894C1.37028 56.4862 0 54.5913 0 52.4174C0 47.3328 2.47813 42.8203 6.2902 40.0239C8.53392 42.4909 11.7655 44.0369 15.3572 44.0369C18.946 44.037 22.1804 42.491 24.4213 40.0239Z" fill="white"/>
<path fill-rule="evenodd" clip-rule="evenodd" d="M53.7368 17.6987C57.5488 20.495 60.027 25.0076 60.027 30.0921C60.027 32.2661 58.6567 34.1609 56.1368 35.4641C53.3545 36.9041 49.0177 37.6743 44.6698 37.6743C40.3247 37.6743 35.9879 36.9041 33.2056 35.4641C30.6857 34.1609 29.3154 32.266 29.3154 30.0921C29.3154 25.0075 31.7936 20.4949 35.6056 17.6987C37.8466 20.1657 41.081 21.7117 44.6698 21.7117C48.2614 21.7117 51.4931 20.1657 53.7368 17.6987Z" fill="white"/>
</svg>
