<svg width="70" height="60" viewBox="0 0 70 60" fill="none" xmlns="http://www.w3.org/2000/svg">
<path d="M28.8307 19.728C29.2058 19.9418 29.6329 20.0474 30.0644 20.0331C30.5073 19.9924 30.9363 19.8577 31.323 19.638L59.0398 3.46569C58.4373 2.41574 57.5691 1.54278 56.5225 0.934455C55.4759 0.326133 54.2877 0.00386192 53.0772 0H6.92332C5.7128 0.00392571 4.52461 0.32625 3.47805 0.934612C2.43149 1.54297 1.5634 2.41596 0.960938 3.46592L28.8307 19.728Z" fill="#BE3455"/>
<path d="M60 8.23828V24.2767C57.7796 23.4775 55.4368 23.0714 53.0769 23.0767C47.5711 23.085 42.2932 25.2759 38.4 29.1691C34.5068 33.0623 32.316 38.3402 32.3077 43.846C32.3071 44.6173 32.3534 45.3879 32.4462 46.1537H6.92308C5.08861 46.1483 3.33081 45.4172 2.03364 44.12C0.736472 42.8229 0.00535756 41.0651 0 39.2306V8.23828L26.5154 23.7229C27.5839 24.3072 28.7822 24.6134 30 24.6134C31.2178 24.6134 32.4161 24.3072 33.4846 23.7229L60 8.23828Z" fill="#BE3455"/>
<path d="M53.0777 27.6919C48.7934 27.6919 44.6846 29.3938 41.6552 32.4232C38.6257 35.4527 36.9238 39.5615 36.9238 43.8457C36.9238 48.13 38.6257 52.2388 41.6552 55.2682C44.6846 58.2977 48.7934 59.9996 53.0777 59.9996C53.6897 59.9996 54.2767 59.7565 54.7095 59.3237C55.1422 58.8909 55.3854 58.3039 55.3854 57.6919C55.3854 57.0799 55.1422 56.4929 54.7095 56.0601C54.2767 55.6273 53.6897 55.3842 53.0777 55.3842C50.7956 55.3842 48.5647 54.7075 46.6672 53.4396C44.7698 52.1718 43.2908 50.3697 42.4175 48.2613C41.5442 46.1529 41.3157 43.8329 41.7609 41.5947C42.2061 39.3565 43.3051 37.3005 44.9187 35.6868C46.5324 34.0731 48.5884 32.9742 50.8266 32.529C53.0649 32.0838 55.3849 32.3123 57.4933 33.1856C59.6016 34.0589 61.4037 35.5378 62.6716 37.4353C63.9394 39.3328 64.6161 41.5636 64.6161 43.8457V46.1534C64.6161 46.7655 64.373 47.3524 63.9402 47.7852C63.5075 48.218 62.9205 48.4611 62.3084 48.4611C61.6964 48.4611 61.1094 48.218 60.6767 47.7852C60.2439 47.3524 60.0008 46.7655 60.0008 46.1534V43.8457C60.0008 42.4765 59.5947 41.138 58.834 39.9995C58.0733 38.861 56.992 37.9736 55.727 37.4497C54.462 36.9257 53.07 36.7886 51.727 37.0557C50.3841 37.3228 49.1505 37.9822 48.1823 38.9504C47.2141 39.9186 46.5548 41.1522 46.2876 42.4951C46.0205 43.8381 46.1576 45.2301 46.6816 46.4951C47.2056 47.7601 48.0929 48.8414 49.2314 49.6021C50.3699 50.3628 51.7084 50.7688 53.0777 50.7688C54.2705 50.7613 55.4406 50.4419 56.4718 49.8425C57.2697 51.1129 58.4594 52.089 59.8611 52.6235C61.2628 53.1579 62.8004 53.2216 64.2415 52.805C65.6826 52.3883 66.9489 51.5139 67.8492 50.3139C68.7494 49.114 69.2346 47.6536 69.2315 46.1534V43.8457C69.2263 39.5631 67.5227 35.4573 64.4944 32.429C61.4661 29.4007 57.3603 27.6971 53.0777 27.6919ZM53.0777 46.1534C52.6213 46.1534 52.1751 46.0181 51.7956 45.7645C51.4161 45.5109 51.1203 45.1505 50.9456 44.7289C50.771 44.3072 50.7253 43.8432 50.8143 43.3955C50.9034 42.9479 51.1232 42.5367 51.4459 42.214C51.7686 41.8912 52.1798 41.6714 52.6275 41.5824C53.0751 41.4933 53.5391 41.539 53.9608 41.7137C54.3825 41.8884 54.7429 42.1842 54.9965 42.5637C55.25 42.9432 55.3854 43.3893 55.3854 43.8457C55.385 44.4577 55.1418 45.0444 54.7091 45.4771C54.2764 45.9098 53.6896 46.1531 53.0777 46.1534Z" fill="#BFCAD6"/>
</svg>
