<svg width="60" height="60" viewBox="0 0 60 60" fill="none" xmlns="http://www.w3.org/2000/svg">
<path d="M7.3125 12.6L12.9375 17.2875C13.2527 17.5512 13.6512 17.6953 14.0625 17.6953H49.009C51.3855 17.6953 53.3203 15.7617 53.3203 13.384C53.3203 12.1008 52.7543 10.8926 51.7688 10.0711L48.041 6.96445C47.0941 6.17578 45.8953 5.74219 44.6648 5.74219H19.5844L17.0062 2.58516C15.6656 0.942187 13.6805 0 11.5605 0H8.4375C7.46719 0 6.67969 0.7875 6.67969 1.75781V11.25C6.67969 11.7715 6.91172 12.266 7.3125 12.6Z" fill="#BE3455"/>
<path d="M12.2039 21.941C11.5336 22.3523 11.2195 23.1598 11.434 23.9156C11.6472 24.6727 12.3387 25.1953 13.125 25.1953H22.9547C24.1324 25.1953 25.2808 24.9633 26.366 24.5062L34.1918 21.2109H13.391L12.2039 21.941Z" fill="#BE3455"/>
<path d="M24.4918 44.8732V41.7369L22.4308 38.3019C21.9392 37.4827 21.6793 36.5445 21.6793 35.5888V29.4175C16.8741 30.8076 12.4614 33.4023 8.8109 37.0537C6.42473 39.4394 4.4909 42.1512 3.04785 45.0845H6.05066C8.22508 45.0845 10.1488 46.3903 10.9517 48.4111L11.6438 50.1537L14.089 50.9687C16.2459 51.6878 17.6949 53.6983 17.6949 55.9716V60.0001H28.2418V52.0949L25.3775 47.7983C24.7981 46.9294 24.4918 45.9178 24.4918 44.8732Z" fill="#BE3455"/>
<path d="M44.1797 46.8684V43.125C44.1797 42.6587 44.365 42.2116 44.6946 41.8821L50.3386 36.238C44.767 31.0737 37.5904 28.2422 30 28.2422C28.3754 28.2422 26.7704 28.374 25.1953 28.6283V35.5887C25.1953 35.9072 25.2819 36.22 25.4457 36.4929L27.7573 40.3455C27.9212 40.6188 28.0078 40.9314 28.0078 41.25V44.8731C28.0078 45.2212 28.1099 45.5584 28.303 45.848L31.4626 50.5874C31.6552 50.8761 31.7578 51.2154 31.7578 51.5624V59.9999H38.5547V52.4999C38.5547 51.9121 38.8484 51.3633 39.3375 51.0374L43.397 48.3311C43.8871 48.0043 44.1797 47.4575 44.1797 46.8684Z" fill="#BFCAD6"/>
<path d="M12.9777 54.3038L9.75668 53.2302C9.26473 53.0662 8.87027 52.6933 8.67891 52.2115L7.68492 49.7089C7.41738 49.0353 6.77602 48.6001 6.05121 48.6001H1.59117C0.545508 51.6679 0 54.9151 0 58.2422C0 59.2125 0.7875 60 1.75781 60H14.1797V55.9714C14.1797 55.2136 13.6966 54.5435 12.9777 54.3038Z" fill="#BFCAD6"/>
<path d="M52.7788 38.7698L47.6953 43.8533V46.8686C47.6953 48.6357 46.8175 50.2759 45.3471 51.2563L42.0703 53.4408V60.0002H58.2422C59.2125 60.0002 60 59.2127 60 58.2423C60 51.04 57.4514 44.2094 52.7788 38.7698Z" fill="#BE3455"/>
</svg>
