<svg width="61" height="60" viewBox="0 0 61 60" fill="none" xmlns="http://www.w3.org/2000/svg">
<path d="M11.8147 39.2002C11.8212 35.9407 9.18433 33.2931 5.92505 33.2866C2.66578 33.2801 0.0183225 35.9171 0.0118036 39.1766C0.00528465 42.436 2.64217 45.0837 5.90145 45.0902C9.16072 45.0967 11.8082 42.4597 11.8147 39.2002Z" fill="#BFCAD6"/>
<path d="M12.874 47.2419C11.5104 45.8795 9.62699 45.0356 7.54644 45.0356C3.38535 45.0356 0.0126953 48.4085 0.0126953 52.5699V58.2422C0.0126953 59.213 0.801133 59.9999 1.77367 59.9999H13.3891C14.37 59.9999 15.162 59.1997 15.1499 58.2205L15.0802 52.5699C15.0801 50.4892 14.2363 48.6056 12.874 47.2419Z" fill="#BFCAD6"/>
<path d="M54.1254 45.1118C57.3847 45.0987 60.0163 42.4458 60.0033 39.1864C59.9902 35.9269 57.3375 33.2951 54.0782 33.3082C50.8189 33.3212 48.1873 35.9741 48.2004 39.2336C48.2134 42.4931 50.8661 45.1248 54.1254 45.1118Z" fill="#BFCAD6"/>
<path d="M52.4786 45.0356C50.3981 45.0356 48.5146 45.8795 47.151 47.2419C45.7887 48.6056 44.9449 50.4892 44.9449 52.5699L44.8751 58.2205C44.8632 59.1997 45.655 59.9999 46.636 59.9999H58.2514C59.2239 59.9999 60.0124 59.213 60.0124 58.2422V52.5699C60.0124 48.4084 56.6397 45.0356 52.4786 45.0356Z" fill="#BFCAD6"/>
<path d="M0.959719 17.0688L4.31644 18.8162C5.16112 19.2609 6.24042 18.9397 6.69206 18.0705C7.14183 17.2098 6.80726 16.148 5.94499 15.6992L2.58827 13.9518C1.72577 13.5028 0.662297 13.8369 0.212648 14.6975C-0.237117 15.5582 0.0974531 16.6198 0.959719 17.0688Z" fill="#BFCAD6"/>
<path d="M5.95019 23.4464L2.27823 24.3614C1.33464 24.5965 0.760657 25.5506 0.996204 26.4925C1.22812 27.4418 2.21284 28.0088 3.13124 27.7722L6.8032 26.8572C7.74679 26.6221 8.32077 25.6679 8.08523 24.7261C7.84968 23.784 6.89355 23.211 5.95019 23.4464Z" fill="#BFCAD6"/>
<path d="M53.3328 18.0704C53.7846 18.9395 54.8637 19.2607 55.7084 18.816L59.0651 17.0686C59.9274 16.6198 60.2618 15.5581 59.8122 14.6973C59.3624 13.8367 58.2991 13.503 57.4366 13.9517L54.0798 15.6991C53.2176 16.1479 52.883 17.2096 53.3328 18.0704Z" fill="#BFCAD6"/>
<path d="M57.7475 24.3614L54.0755 23.4464C53.1321 23.211 52.176 23.7841 51.9405 24.7261C51.7051 25.6679 52.2789 26.6221 53.2225 26.8572L56.8945 27.7722C57.8129 28.0088 58.7976 27.4417 59.0295 26.4925C59.265 25.5506 58.6911 24.5965 57.7475 24.3614Z" fill="#BFCAD6"/>
<path d="M22.0469 58.2424C22.0469 59.2127 22.8346 60.0001 23.8079 60.0001H28.2513V40.3136C28.2513 39.3433 29.0402 38.5559 30.0122 38.5559C30.9855 38.5559 31.7732 39.3434 31.7732 40.3136V60.0001H36.2178C37.1898 60.0001 37.9788 59.2126 37.9788 58.2424V32.6968H22.0469V58.2424Z" fill="#BE3455"/>
<path d="M30.0664 12.4434C33.4257 12.4432 36.2495 9.65074 36.2355 6.22348C36.2355 2.80301 33.4802 0.0292969 30.0664 0.00117187C30.0488 0 30.0299 0 30.0124 0C26.575 0 23.7892 2.78543 23.7892 6.22348C23.7643 9.61242 26.6028 12.4999 30.0664 12.4434Z" fill="#BE3455"/>
<path d="M53.1495 3.58643C51.6917 2.12756 49.3261 2.12732 47.869 3.58643L40.992 10.4134C39.6842 11.7141 37.915 12.4442 36.0707 12.4442H23.9028C22.0526 12.4442 20.2764 11.7094 18.9674 10.3994L12.155 3.58643C10.6995 2.12779 8.3316 2.12709 6.87566 3.58643C5.41645 5.04412 5.41645 7.40885 6.87566 8.86666L21.5583 23.5529L21.8612 29.1811H38.1535L38.4364 23.5821L53.1495 8.86666C54.6075 7.40897 54.6075 5.04424 53.1495 3.58643Z" fill="#BE3455"/>
</svg>
