<svg width="20" height="20" viewBox="0 0 20 20" fill="none" xmlns="http://www.w3.org/2000/svg">
<path fill-rule="evenodd" clip-rule="evenodd" d="M14.5977 0.95752H5.02345C2.39077 0.95752 0.236328 3.07385 0.236328 5.65997V15.0653C0.236328 17.6508 2.39077 19.7678 5.02345 19.7678H14.5977C17.2304 19.7678 19.3848 17.6508 19.3848 15.0653V5.65997C19.3848 3.07385 17.2304 0.95752 14.5977 0.95752ZM17.789 15.0653C17.789 16.7935 16.358 18.2002 14.5977 18.2002H5.02345C3.26395 18.2002 1.83211 16.7935 1.83211 15.0653V5.65997C1.83211 3.93136 3.26395 2.52508 5.02345 2.52508H14.5977C16.358 2.52508 17.789 3.93136 17.789 5.65997V15.0653ZM14.9962 6.44321C15.6572 6.44321 16.193 5.91687 16.193 5.2676C16.193 4.61833 15.6572 4.09199 14.9962 4.09199C14.3352 4.09199 13.7994 4.61833 13.7994 5.2676C13.7994 5.91687 14.3352 6.44321 14.9962 6.44321ZM5.02335 10.3625C5.02335 7.76509 7.16605 5.66006 9.81047 5.66006C12.4541 5.66006 14.5976 7.76509 14.5976 10.3625C14.5976 12.959 12.4541 15.0654 9.81047 15.0654C7.16605 15.0654 5.02335 12.959 5.02335 10.3625ZM6.61913 10.3625C6.61913 12.0942 8.04807 13.4979 9.81047 13.4979C11.5729 13.4979 13.0018 12.0942 13.0018 10.3625C13.0018 8.63082 11.5729 7.22762 9.81047 7.22762C8.04807 7.22762 6.61913 8.63082 6.61913 10.3625Z" fill="white"/>
</svg>
