<svg width="20" height="20" viewBox="0 0 20 20" fill="none" xmlns="http://www.w3.org/2000/svg">
<path fill-rule="evenodd" clip-rule="evenodd" d="M0.595703 3.21474C0.595703 1.96857 1.62496 0.95752 2.89358 0.95752C4.1622 0.95752 5.19146 1.96857 5.19146 3.21474C5.19146 4.46092 4.1622 5.49548 2.89358 5.49548C1.62496 5.49548 0.595703 4.46092 0.595703 3.21474ZM19.744 19.7437V12.8779C19.744 9.4921 19.0019 6.90569 14.9806 6.90569C13.0418 6.90569 11.7493 7.94025 11.2227 8.92779H11.1748V7.21136H7.36893V19.7672H11.3423V13.5363C11.3423 11.8904 11.6535 10.315 13.712 10.315C15.7466 10.315 15.7705 12.1725 15.7705 13.6303V19.7437H19.744ZM0.907364 7.21179H4.88078V19.7676H0.907364V7.21179Z" fill="white"/>
</svg>
