<svg width="21" height="16" viewBox="0 0 21 16" fill="none" xmlns="http://www.w3.org/2000/svg">
<path fill-rule="evenodd" clip-rule="evenodd" d="M1.66017 0.920088L7.87254 7.13515C9.22747 8.48749 11.4423 8.48865 12.7984 7.13515L19.0107 0.920088C19.0733 0.857525 19.0642 0.754494 18.9916 0.703877C18.358 0.261978 17.587 0 16.7566 0H3.91435C3.08386 0 2.31293 0.262023 1.6793 0.703877C1.60672 0.754494 1.5976 0.857525 1.66017 0.920088ZM0 3.91431C0 3.26127 0.161911 2.64426 0.447109 2.10193C0.491708 2.01709 0.604754 1.99993 0.672528 2.06771L6.80626 8.20143C8.74861 10.1466 11.9212 10.1477 13.8647 8.20143L19.9984 2.06771C20.0662 1.99993 20.1792 2.01709 20.2238 2.10193C20.509 2.64426 20.671 3.26132 20.671 3.91431V12.0856C20.671 14.2457 18.9139 16 16.7566 16H3.91435C1.75709 16 0 14.2457 0 12.0856V3.91431Z" fill="white"/>
</svg>
