<svg width="17" height="20" viewBox="0 0 17 20" fill="none" xmlns="http://www.w3.org/2000/svg">
<path d="M8.39679 0C2.91421 0.000833345 0 3.51338 0 7.34344C0 9.1193 0.992514 11.3352 2.5817 12.0377C3.03504 12.2418 2.97504 11.9927 3.36505 10.501C3.39588 10.3768 3.38005 10.2693 3.28005 10.1535C1.00835 7.52594 2.83671 2.1242 8.07261 2.1242C15.6502 2.1242 14.2344 12.6093 9.39097 12.6093C8.14262 12.6093 7.2126 11.6293 7.50677 10.4168C7.86344 8.97263 8.56179 7.4201 8.56179 6.37926C8.56179 3.75589 4.6534 4.14506 4.6534 7.62094C4.6534 8.69512 5.0334 9.42013 5.0334 9.42013C5.0334 9.42013 3.77589 14.5002 3.54255 15.4494C3.14754 17.0561 3.59588 19.6569 3.63505 19.8811C3.65922 20.0044 3.79755 20.0436 3.87505 19.9419C3.99922 19.7794 5.51924 17.6111 5.94508 16.0436C6.10009 15.4727 6.73593 13.156 6.73593 13.156C7.1551 13.9127 8.36345 14.546 9.65097 14.546C13.481 14.546 16.2494 11.1793 16.2494 7.00177C16.2361 2.99671 12.8085 0 8.39679 0Z" fill="white"/>
</svg>
