<svg width="18" height="18" viewBox="0 0 18 18" fill="none" xmlns="http://www.w3.org/2000/svg">
<path d="M13.6846 11.9075C13.0965 11.3269 12.3624 11.3269 11.7781 11.9075C11.3323 12.3495 10.8866 12.7914 10.4484 13.2409C10.3285 13.3645 10.2274 13.3907 10.0813 13.3083C9.79287 13.151 9.48573 13.0237 9.20856 12.8514C7.91632 12.0386 6.83383 10.9935 5.87495 9.81742C5.39926 9.2331 4.976 8.60758 4.6801 7.90341C4.62016 7.76107 4.6314 7.66743 4.74752 7.55132C5.19325 7.12057 5.62774 6.67859 6.06598 6.2366C6.67651 5.62232 6.67651 4.90316 6.06223 4.28513C5.71389 3.93304 5.36554 3.58844 5.0172 3.23636C4.65762 2.87678 4.30179 2.51345 3.93846 2.15761C3.3504 1.58453 2.61626 1.58453 2.03194 2.16136C1.58246 2.60334 1.15172 3.05657 0.694749 3.49106C0.271493 3.89184 0.0579921 4.38252 0.0130446 4.9556C-0.0581223 5.88826 0.170361 6.76848 0.492485 7.62623C1.15172 9.40166 2.15554 10.9786 3.37287 12.4244C5.0172 14.3796 6.97991 15.9265 9.27598 17.0427C10.3098 17.5446 11.381 17.9304 12.5459 17.9941C13.3475 18.0391 14.0442 17.8368 14.6023 17.2113C14.9843 16.7843 15.4151 16.3947 15.8196 15.9865C16.4189 15.3797 16.4226 14.6455 15.8271 14.0462C15.1154 13.3308 14.4 12.6191 13.6846 11.9075Z" fill="white"/>
<path d="M12.9694 8.92223L14.3516 8.68625C14.1343 7.41649 13.535 6.26658 12.6248 5.35265C11.6622 4.39002 10.4449 3.78323 9.10395 3.59595L8.90918 4.98557C9.94672 5.13165 10.8906 5.59986 11.636 6.34524C12.3402 7.04941 12.8009 7.94087 12.9694 8.92223Z" fill="white"/>
<path d="M15.1307 2.9141C13.5351 1.31846 11.5162 0.310887 9.28755 0L9.09277 1.38963C11.018 1.65931 12.7635 2.53204 14.1419 3.90669C15.4491 5.21391 16.3068 6.86573 16.6177 8.68236L17.9999 8.44639C17.6365 6.34135 16.644 4.43108 15.1307 2.9141Z" fill="white"/>
</svg>
