<svg width="56" height="50" viewBox="0 0 56 50" fill="none" xmlns="http://www.w3.org/2000/svg">
<path d="M45.0137 28.8728C39.179 28.8728 34.4502 33.6016 34.4502 39.4363C34.4502 45.2709 39.179 49.9997 45.0137 49.9997C50.8483 49.9997 55.5771 45.2709 55.5771 39.4363C55.5771 33.6016 50.8483 28.8728 45.0137 28.8728ZM49.6906 38.9863L44.5329 43.1401C44.2252 43.3882 43.8406 43.5228 43.4483 43.5228C43.3829 43.5228 43.3175 43.519 43.2502 43.5113C42.7906 43.4593 42.3714 43.2247 42.0867 42.8593L40.0598 40.2747C39.4694 39.5209 39.6021 38.4343 40.3521 37.844C41.1079 37.2536 42.1906 37.3863 42.7829 38.1363L43.7271 39.342L47.5194 36.2863C48.2656 35.6843 49.354 35.8074 49.954 36.5497C50.554 37.2959 50.4367 38.3863 49.6906 38.9863Z" fill="#BFCAD6"/>
<path d="M31.5654 39.4385C31.5654 32.0231 37.5981 25.9904 45.0135 25.9904C47.4769 25.9904 49.7808 26.6673 51.7692 27.8288V10.5192C51.7692 6.15385 48.2308 2.61538 43.8654 2.61538H39.7115V1.73077C39.7115 0.769231 38.9231 0 37.9808 0C37.0192 0 36.25 0.769231 36.25 1.73077V2.61538H15.5385V1.73077C15.5385 0.769231 14.7692 0 13.8077 0C12.8462 0 12.0769 0.769231 12.0769 1.73077V2.61538H7.90385C3.53846 2.61538 0 6.15385 0 10.5192V38.8654C0 43.2308 3.53846 46.7692 7.90385 46.7692H33.7538C32.375 44.6577 31.5654 42.1423 31.5654 39.4385ZM38.3288 18.6423C39.4327 18.6423 40.3269 19.5365 40.3269 20.6404C40.3269 21.7442 39.4327 22.6385 38.3288 22.6385C37.225 22.6385 36.3308 21.7442 36.3308 20.6404C36.3308 19.5365 37.225 18.6423 38.3288 18.6423ZM13.45 33.525C12.3462 33.525 11.4519 32.6308 11.4519 31.5269C11.4519 30.4231 12.3462 29.5288 13.45 29.5288C14.5538 29.5288 15.4481 30.4231 15.4481 31.5269C15.4481 32.6308 14.5538 33.525 13.45 33.525ZM13.45 22.6385C12.3462 22.6385 11.4519 21.7442 11.4519 20.6404C11.4519 19.5365 12.3462 18.6423 13.45 18.6423C14.5538 18.6423 15.4481 19.5365 15.4481 20.6404C15.4481 21.7442 14.5538 22.6385 13.45 22.6385ZM25.8904 33.525C24.7865 33.525 23.8923 32.6308 23.8923 31.5269C23.8923 30.4231 24.7865 29.5288 25.8904 29.5288C26.9942 29.5288 27.8885 30.4231 27.8885 31.5269C27.8885 32.6308 26.9923 33.525 25.8904 33.525ZM25.8904 22.6385C24.7865 22.6385 23.8923 21.7442 23.8923 20.6404C23.8923 19.5365 24.7865 18.6423 25.8904 18.6423C26.9942 18.6423 27.8885 19.5365 27.8885 20.6404C27.8885 21.7442 26.9923 22.6385 25.8904 22.6385Z" fill="#BE3455"/>
</svg>
