<svg width="60" height="60" viewBox="0 0 60 60" fill="none" xmlns="http://www.w3.org/2000/svg">
<path d="M53.3791 41.4106H20.7869C19.1369 41.4106 17.7939 40.0664 17.7939 38.4129C17.7939 36.7606 19.1369 35.4164 20.7869 35.4164H33.1502L30.5416 31.9008H20.7869C17.1986 31.9008 14.2783 34.8223 14.2783 38.4129C14.2783 42.0047 17.1986 44.9262 20.7869 44.9262H53.3791C55.0912 44.9262 56.4846 46.3207 56.4846 48.0364C56.4846 49.752 55.0912 51.1465 53.3791 51.1465H17.5502C17.7392 52.2716 17.7518 53.4631 17.5502 54.6621H53.3791C57.0295 54.6621 60.0002 51.6903 60.0002 48.0364C60.0002 44.3825 57.0295 41.4106 53.3791 41.4106Z" fill="#BE3455"/>
<path d="M7.09043 45.8091C3.18082 45.8091 0 48.9922 0 52.9046C0 56.817 3.18082 60 7.09043 60C11 60 14.1809 56.8169 14.1809 52.9046C14.1809 48.9923 11 45.8091 7.09043 45.8091ZM7.09043 56.4843C5.11934 56.4843 3.51562 54.8784 3.51562 52.9046C3.51562 50.9308 5.11934 49.3249 7.09043 49.3249C9.06152 49.3249 10.6652 50.9308 10.6652 52.9046C10.6652 54.8784 9.06152 56.4843 7.09043 56.4843Z" fill="#BFCAD6"/>
<path d="M38.2318 15.1771C39.2013 15.1771 39.9901 14.3869 39.9901 13.4157C39.9901 12.4444 39.2014 11.6542 38.2318 11.6542C37.2624 11.6542 36.4736 12.4444 36.4736 13.4157C36.4736 14.3869 37.2624 15.1771 38.2318 15.1771Z" fill="#BFCAD6"/>
<path d="M36.9123 34.5888C37.6171 35.5387 39.0461 35.5376 39.7459 34.575L48.989 21.8599C55.7964 13.0121 49.5132 0 38.2308 0C27.0024 0 20.7305 12.8843 27.3763 21.7331C27.4101 21.782 26.9556 21.1671 36.9123 34.5888ZM38.2307 8.13844C41.1387 8.13844 43.5046 10.5057 43.5046 13.4155C43.5046 16.3253 41.1388 18.6926 38.2307 18.6926C35.3228 18.6926 32.9569 16.3253 32.9569 13.4155C32.9569 10.5057 35.3228 8.13844 38.2307 8.13844Z" fill="#BE3455"/>
</svg>
