<svg width="58" height="61" viewBox="0 0 58 61" fill="none" xmlns="http://www.w3.org/2000/svg">
<path d="M18.3321 40.2096C15.0029 42.8244 12.8596 46.8823 12.8596 51.4403V55.7269H4.28654C1.91466 55.7269 0 53.8122 0 51.4403V48.5826C0 43.053 4.47229 38.5807 10.0019 38.5807H12.8596C14.8886 38.5807 16.7604 39.1808 18.3321 40.2096Z" fill="#BE3455"/>
<path d="M45.7238 38.5807C49.2749 38.5807 52.1536 35.702 52.1536 32.1509C52.1536 28.5998 49.2749 25.7211 45.7238 25.7211C42.1727 25.7211 39.2939 28.5998 39.2939 32.1509C39.2939 35.702 42.1727 38.5807 45.7238 38.5807Z" fill="#BE3455"/>
<path d="M11.4308 38.5807C14.9819 38.5807 17.8606 35.702 17.8606 32.1509C17.8606 28.5998 14.9819 25.7211 11.4308 25.7211C7.8797 25.7211 5.00098 28.5998 5.00098 32.1509C5.00098 35.702 7.8797 38.5807 11.4308 38.5807Z" fill="#BE3455"/>
<path d="M57.1544 48.5826V51.4403C57.1544 53.8122 55.2397 55.7269 52.8678 55.7269H44.2948V51.4403C44.2948 46.8823 42.1515 42.8244 38.8223 40.2096C40.394 39.1808 42.2658 38.5807 44.2948 38.5807H47.1525C52.6821 38.5807 57.1544 43.053 57.1544 48.5826Z" fill="#BE3455"/>
<path d="M28.5774 40.0095C32.9176 40.0095 36.4361 36.4911 36.4361 32.1508C36.4361 27.8106 32.9176 24.2922 28.5774 24.2922C24.2372 24.2922 20.7188 27.8106 20.7188 32.1508C20.7188 36.4911 24.2372 40.0095 28.5774 40.0095Z" fill="#BE3455"/>
<path d="M30.0063 40.0096H27.1486C20.8459 40.0096 15.7178 45.1377 15.7178 51.4404V55.7269C15.7178 58.0902 17.641 60.0135 20.0043 60.0135H37.1505C39.5138 60.0135 41.437 58.0902 41.437 55.7269V51.4404C41.437 45.1377 36.3089 40.0096 30.0063 40.0096Z" fill="#BE3455"/>
<path d="M49.2954 19.5542L45.8476 20.7801C44.8688 21.1273 43.8472 20.3857 43.8758 19.347L43.9758 15.6891L41.7439 12.7886C41.111 11.9655 41.501 10.7639 42.4969 10.4695L46.0076 9.43505L48.0766 6.4159C48.6639 5.56002 49.927 5.56002 50.5142 6.4159L52.5832 9.43505L56.0939 10.4695C57.0898 10.7625 57.4798 11.9655 56.8469 12.7886L54.615 15.6891L54.715 19.347C54.7436 20.3843 53.7205 21.1273 52.7432 20.7801L49.2954 19.5542Z" fill="#BFCAD6"/>
<path d="M7.85888 19.5542L4.41107 20.7801C3.43231 21.1273 2.41068 20.3857 2.43926 19.347L2.53928 15.6891L0.30742 12.7886C-0.325559 11.9655 0.064516 10.7639 1.06042 10.4695L4.5711 9.43505L6.64007 6.4159C7.22733 5.56002 8.49043 5.56002 9.07769 6.4159L11.1467 9.43505L14.6573 10.4695C15.6532 10.7625 16.0433 11.9655 15.4103 12.7886L13.1785 15.6891L13.2785 19.347C13.3071 20.3843 12.284 21.1273 11.3067 20.7801L7.85888 19.5542Z" fill="#BFCAD6"/>
<path d="M28.5771 16.3392L24.4891 17.7924C23.3289 18.2053 22.1173 17.3237 22.1516 16.0935L22.2701 11.7569L19.6239 8.31768C18.8738 7.34178 19.3367 5.91722 20.5169 5.56858L24.6792 4.3412L27.1325 0.761933C27.8284 -0.253978 29.3272 -0.253978 30.0231 0.761933L32.4764 4.3412L36.6386 5.56858C37.8189 5.91722 38.2818 7.34178 37.5317 8.31768L34.8854 11.7569L35.004 16.0935C35.0383 17.3237 33.8252 18.2053 32.6664 17.7924L28.5771 16.3392Z" fill="#BFCAD6"/>
</svg>
