<svg width="56" height="52" viewBox="0 0 56 52" fill="none" xmlns="http://www.w3.org/2000/svg">
<path d="M50.3949 20.2775L38.8159 10.0435H33.8789L39.4619 20.2775H50.3949Z" fill="#BE3455"/>
<path d="M17.0558 10.0435H12.1188L0.550781 20.2775H11.4838L17.0558 10.0435Z" fill="#BE3455"/>
<path d="M37.0464 20.2775L31.4634 10.0435H19.4714L13.8984 20.2775H37.0464Z" fill="#BE3455"/>
<path d="M13.666 22.3965L25.394 51.8785L37.259 22.3965H13.666Z" fill="#BE3455"/>
<path d="M0 22.3965L21.993 49.0395L11.388 22.3965H0Z" fill="#BE3455"/>
<path d="M39.5471 22.3965L28.9531 48.7005L50.9251 22.3965H39.5471Z" fill="#BE3455"/>
<path d="M3.51774 5.04034H5.38046V6.90306C5.38046 7.18403 5.49207 7.45349 5.69075 7.65216C5.88942 7.85084 6.15888 7.96245 6.43985 7.96245C6.72082 7.96245 6.99028 7.85084 7.18895 7.65216C7.38762 7.45349 7.49924 7.18403 7.49924 6.90306V5.04034H9.36144C9.64241 5.04034 9.91187 4.92873 10.1105 4.73005C10.3092 4.53138 10.4208 4.26192 10.4208 3.98095C10.4208 3.69998 10.3092 3.43052 10.1105 3.23185C9.91187 3.03317 9.64241 2.92156 9.36144 2.92156H7.49924V1.05939C7.49924 0.778422 7.38762 0.508963 7.18895 0.310288C6.99028 0.111614 6.72082 0 6.43985 0C6.15888 0 5.88942 0.111614 5.69075 0.310288C5.49207 0.508963 5.38046 0.778422 5.38046 1.05939V2.92159H3.51774C3.24047 2.92718 2.97644 3.04124 2.78233 3.23931C2.58822 3.43737 2.47949 3.70364 2.47949 3.98097C2.47949 4.25829 2.58822 4.52456 2.78233 4.72262C2.97644 4.92069 3.24047 5.03475 3.51774 5.04034Z" fill="#BFCAD6"/>
<path d="M54.9616 32.8747H53.0993V31.0119C53.0985 30.7315 52.9865 30.4629 52.7879 30.2649C52.5893 30.067 52.3204 29.9558 52.04 29.9558C51.7596 29.9558 51.4906 30.067 51.292 30.2649C51.0934 30.4629 50.9814 30.7315 50.9806 31.0119V32.8747H49.1173C48.9779 32.8742 48.8398 32.9013 48.7109 32.9544C48.582 33.0074 48.4648 33.0854 48.3661 33.1838C48.2674 33.2822 48.1891 33.3992 48.1356 33.5279C48.0822 33.6566 48.0547 33.7947 48.0547 33.9341C48.0547 34.0735 48.0822 34.2115 48.1356 34.3402C48.1891 34.469 48.2674 34.5859 48.3661 34.6843C48.4648 34.7827 48.582 34.8607 48.7109 34.9137C48.8398 34.9668 48.9779 34.9939 49.1173 34.9934H50.9806V36.8557C50.9801 36.995 51.0072 37.1332 51.0603 37.2621C51.1133 37.391 51.1913 37.5081 51.2897 37.6069C51.3881 37.7056 51.5051 37.7839 51.6338 37.8373C51.7625 37.8908 51.9006 37.9183 52.04 37.9183C52.1794 37.9183 52.3174 37.8908 52.4461 37.8373C52.5749 37.7839 52.6918 37.7056 52.7902 37.6069C52.8886 37.5081 52.9666 37.391 53.0196 37.2621C53.0727 37.1332 53.0998 36.995 53.0993 36.8557V34.9934H54.9616C55.2389 34.988 55.5031 34.874 55.6973 34.6759C55.8915 34.4778 56.0003 34.2115 56.0003 33.9341C56.0003 33.6566 55.8915 33.3903 55.6973 33.1922C55.5031 32.9941 55.2389 32.8801 54.9616 32.8747Z" fill="#BFCAD6"/>
</svg>
