<svg width="60" height="60" viewBox="0 0 60 60" fill="none" xmlns="http://www.w3.org/2000/svg">
<path d="M24.3254 16.45C23.4734 15.2868 22.9688 13.8538 22.9688 12.3047C22.9688 8.42766 26.123 5.27344 30 5.27344C33.877 5.27344 37.0312 8.42766 37.0312 12.3047C37.0312 13.8538 36.5266 15.2868 35.6746 16.45C38.3695 17.5369 40.4006 19.9342 40.9711 22.8489C42.9041 20.44 44.0625 17.3842 44.0625 14.0625C44.0625 6.30844 37.7541 0 30 0C22.2459 0 15.9375 6.30844 15.9375 14.0625C15.9375 17.3842 17.0959 20.44 19.0289 22.8487C19.5995 19.9342 21.6305 17.5369 24.3254 16.45Z" fill="#BFCAD6"/>
<path d="M37.6172 24.5227C37.6172 21.6627 35.2905 19.3359 32.4305 19.3359H27.5695C24.7096 19.3359 22.3828 21.6627 22.3828 24.5227V25.8782C24.5793 27.2989 27.1949 28.125 30 28.125C32.8051 28.125 35.4207 27.2989 37.6172 25.878V24.5227Z" fill="#BFCAD6"/>
<path d="M30 15.8203C31.9416 15.8203 33.5156 14.2463 33.5156 12.3047C33.5156 10.3631 31.9416 8.78906 30 8.78906C28.0584 8.78906 26.4844 10.3631 26.4844 12.3047C26.4844 14.2463 28.0584 15.8203 30 15.8203Z" fill="#BFCAD6"/>
<path d="M5.64082 35.2272C4.58367 33.3963 4.30277 31.2635 4.84992 29.2215C5.39707 27.1795 6.70652 25.4729 8.53723 24.4159C8.62031 24.368 8.7048 24.3234 8.78906 24.2787V19.5703C8.78906 16.0106 5.90332 13.125 2.34363 13.1252C1.0493 13.1252 0 14.1745 0 15.4689V37.5913C0 39.1457 0.413906 40.6771 1.19719 42.0198L8.20312 54.03V58.2422C8.20312 59.213 8.99016 60 9.96094 60H26.3672C27.338 60 28.125 59.213 28.125 58.2422V50.7014C28.1251 46.7916 26.4308 43.0802 23.4766 40.5189C22.7196 39.8626 22.0819 39.0898 21.5811 38.2215L16.3046 29.0724C15.0911 26.9679 12.401 26.2459 10.2967 27.4597C8.19187 28.6739 7.47035 31.3648 8.68535 33.4691L13.9182 42.5319C14.4036 43.3725 14.1157 44.4475 13.275 44.9329C12.4344 45.4183 11.3595 45.1303 10.8741 44.2896L5.64082 35.2272Z" fill="#BE3455"/>
<path d="M54.3592 35.2272C55.4163 33.3963 55.6972 31.2635 55.1501 29.2215C54.6029 27.1795 53.2935 25.4729 51.4628 24.4159C51.3797 24.368 51.2952 24.3234 51.2109 24.2787V19.5703C51.2109 16.0106 54.0967 13.125 57.6564 13.1252C58.9507 13.1254 60 14.1747 60 15.469V37.5914C60 39.1458 59.5861 40.6772 58.8028 42.0199L51.7969 54.03V58.2422C51.7969 59.213 51.0098 60 50.0391 60H33.6328C32.662 60 31.875 59.213 31.875 58.2422V50.7014C31.8749 46.7916 33.5692 43.0802 36.5234 40.5189C37.2804 39.8626 37.9181 39.0898 38.4189 38.2215L43.6954 29.0724C44.9089 26.9679 47.599 26.2459 49.7033 27.4597C51.8081 28.6739 52.5296 31.3648 51.3146 33.4691L46.0818 42.5319C45.5964 43.3725 45.8843 44.4475 46.725 44.9329C47.5656 45.4183 48.6405 45.1303 49.1259 44.2896L54.3592 35.2272Z" fill="#BE3455"/>
</svg>
