<svg width="70" height="60" viewBox="0 0 70 60" fill="none" xmlns="http://www.w3.org/2000/svg">
<path fill-rule="evenodd" clip-rule="evenodd" d="M64.0908 35.9391C63.118 39.6482 61.2422 43.0905 58.5907 45.9441C53.7441 50.9827 47.1314 54.3352 39.7456 54.9189C38.9773 54.9812 38.199 55.0112 37.4158 55.0112C36.0389 55.0112 34.9214 56.1287 34.9214 57.5056C34.9214 58.8825 36.0389 60 37.4158 60C38.3337 60 39.2417 59.965 40.1397 59.8927C48.7877 59.2067 56.5328 55.2881 62.2025 49.3838C62.2125 49.3764 62.22 49.3664 62.23 49.3564C67.1215 44.1032 69.8428 37.1888 69.8428 30.0099C69.8428 29.8054 69.8229 29.6557 69.7905 29.5535C69.8254 29.2591 69.8428 28.9598 69.8428 28.658C69.8428 26.3108 69.8428 23.522 69.8428 21.1748C69.8428 17.0416 66.4929 13.6917 62.3597 13.6917H59.9326C61.4742 17.1189 62.3322 20.9179 62.3322 24.9164C62.3322 28.9149 61.4742 32.7139 59.9326 36.1411H62.3597C62.9558 36.1411 63.5345 36.0713 64.0908 35.9391ZM29.9326 54.849H26.1911C24.8142 54.849 23.6967 55.9665 23.6967 57.3434C23.6967 58.7203 24.8142 59.8378 26.1911 59.8378H29.9326C31.3095 59.8378 32.427 58.7203 32.427 57.3434C32.427 55.9665 31.3095 54.849 29.9326 54.849ZM9.9102 13.6917H7.48316C3.34996 13.6917 0 17.0416 0 21.1748V28.658C0 32.7912 3.34996 36.1411 7.48316 36.1411H9.9102C8.36867 32.7139 7.5106 28.9149 7.5106 24.9164C7.5106 20.9179 8.36867 17.1189 9.9102 13.6917Z" fill="#BFCAD6"/>
<path fill-rule="evenodd" clip-rule="evenodd" d="M34.9164 0C48.668 0 59.8329 11.1649 59.8329 24.9164C59.8329 38.668 48.668 49.8329 34.9164 49.8329C21.1649 49.8329 10 38.668 10 24.9164C10 11.1649 21.1649 0 34.9164 0ZM23.3225 35.545C26.5178 38.2689 30.5463 39.8828 34.9164 39.8828C39.2866 39.8828 43.315 38.2689 46.5103 35.545C47.5605 34.652 47.6852 33.0781 46.7922 32.0304C45.8992 30.9803 44.3253 30.8556 43.2776 31.7486C40.9703 33.7116 38.0693 34.894 34.9164 34.894C31.7635 34.894 28.8626 33.7116 26.5552 31.7486C25.5076 30.8556 23.9336 30.9803 23.0406 32.0304C22.1477 33.0781 22.2724 34.652 23.3225 35.545Z" fill="#BE3455"/>
</svg>
