<svg width="210" height="40" viewBox="0 0 210 40" fill="none" xmlns="http://www.w3.org/2000/svg">
<path fill-rule="evenodd" clip-rule="evenodd" d="M43.0229 0H0L8.51346 14.8061H32.5014L28.8469 20.7915H12.0025L14.5456 25.2019H26.1541L20.2026 34.9493L23.0309 39.9998L32.9904 25.2019H43.0229C49.9822 25.2019 55.6239 19.5602 55.6239 12.6009C55.6239 5.64163 49.9822 0 43.0229 0ZM35.9587 20.7915H43.0229C47.5465 20.7915 51.2135 17.1245 51.2135 12.6009C51.2135 8.07739 47.5465 4.41033 43.0229 4.41033H8.58457L10.7965 10.3958H43.0229L39.9907 14.8061H39.9871L35.9587 20.7915Z" fill="white"/>
<path d="M63.5293 27.3926V8.14795H72.869C76.8794 8.14795 79.3826 10.2474 79.3826 14.2847C79.3826 18.322 76.8794 20.4214 72.869 20.4214H68.3741V27.3926H63.5293ZM68.3741 12.1045V16.4649H71.8462C73.515 16.4649 74.5378 15.8996 74.5378 14.2847C74.5378 12.6698 73.515 12.1045 71.8462 12.1045H68.3741Z" fill="white"/>
<path d="M88.5431 13.3696C88.9199 13.3696 89.2429 13.3696 89.7274 13.4772V17.2454H89.6736C87.4665 16.8417 85.1248 18.0529 85.1248 20.9867V27.3926H80.8183V13.6118H85.1248V15.8727H85.1787C85.8516 14.3385 87.0358 13.3696 88.5431 13.3696Z" fill="white"/>
<path d="M97.5073 24.5934C98.9876 24.5934 99.6874 23.8935 99.9566 23.2207H104.236C103.483 25.993 101.329 27.8232 97.588 27.8232C93.0124 27.8232 90.2401 24.8087 90.2401 20.5022C90.2401 16.3034 92.9585 13.1812 97.3458 13.1812C102.056 13.1812 104.451 16.6264 104.451 21.6326H94.5466C94.5466 23.5706 95.9731 24.5934 97.5073 24.5934ZM97.3458 16.1419C95.7039 16.1419 94.5466 17.1108 94.5466 19.0218H100.145C100.145 17.1108 98.9876 16.1419 97.3458 16.1419Z" fill="white"/>
<path d="M112.649 18.6988C115.368 19.291 118.059 20.2061 118.059 23.3283C118.059 26.2352 115.852 27.8232 112.03 27.8232C107.105 27.8232 105.22 25.6161 105.086 22.8169H109.123C109.258 24.1896 110.173 24.8625 111.869 24.8625C113.08 24.8625 113.753 24.4588 113.753 23.6782C113.753 22.4939 112.461 22.3324 110.281 21.848C107.939 21.3366 105.355 20.4753 105.355 17.5953C105.355 15.0922 107.508 13.1812 111.384 13.1812C115.798 13.1812 117.521 15.4151 117.655 17.8375H113.618C113.484 16.734 112.891 16.1419 111.492 16.1419C110.281 16.1419 109.662 16.5725 109.662 17.2454C109.662 18.2144 110.523 18.2413 112.649 18.6988Z" fill="white"/>
<path d="M126.948 16.8417H124.553V22.5478C124.553 24.1089 125.118 24.1089 126.948 24.1089V27.3387C126.168 27.5002 125.495 27.6348 124.284 27.6348C121.135 27.6348 120.246 25.966 120.246 22.8708V16.8417H118.335V13.6118H120.246V9.76288H124.553V13.6118H126.948V16.8417Z" fill="white"/>
<path d="M130.678 11.97C129.467 11.97 128.525 11.324 128.525 10.059C128.525 8.82084 129.467 8.14795 130.678 8.14795C131.89 8.14795 132.832 8.82084 132.832 10.059C132.832 11.324 131.89 11.97 130.678 11.97ZM128.525 13.6118H132.832V27.3926H128.525V13.6118Z" fill="white"/>
<path d="M143.928 13.6118H148.235V26.0468C148.235 30.5955 145.624 32.1566 141.452 32.1566C137.092 32.1566 135.073 29.8957 134.589 27.6886H138.895C139.164 28.4423 139.837 29.0613 141.345 29.0613C143.282 29.0613 143.928 28.0385 143.928 25.7507V24.9433H143.875C143.336 25.67 142.125 26.7466 140.106 26.7466C136.58 26.7466 134.32 23.9474 134.32 19.9639C134.32 15.9804 136.58 13.1812 140.106 13.1812C142.125 13.1812 143.336 14.2578 143.875 14.9845H143.928V13.6118ZM141.237 23.5167C142.986 23.5167 143.848 22.1979 143.848 19.9639C143.848 17.7299 142.986 16.411 141.237 16.411C139.487 16.411 138.626 17.7299 138.626 19.9639C138.626 22.1979 139.487 23.5167 141.237 23.5167Z" fill="white"/>
<path d="M156.99 24.5934C158.47 24.5934 159.17 23.8935 159.439 23.2207H163.719C162.965 25.993 160.812 27.8232 157.07 27.8232C152.495 27.8232 149.722 24.8087 149.722 20.5022C149.722 16.3034 152.441 13.1812 156.828 13.1812C161.538 13.1812 163.934 16.6264 163.934 21.6326H154.029C154.029 23.5706 155.455 24.5934 156.99 24.5934ZM156.828 16.1419C155.186 16.1419 154.029 17.1108 154.029 19.0218H159.627C159.627 17.1108 158.47 16.1419 156.828 16.1419Z" fill="white"/>
<path d="M170.517 16.3303H178.241V20.2869H170.517V27.3926H165.672V8.14795H179.991V12.1045H170.517V16.3303Z" fill="white"/>
<path d="M181.621 8.14795H185.928V27.3926H181.621V8.14795Z" fill="white"/>
<path d="M201.33 13.6118L196.646 27.6617C195.462 31.1877 194.17 32.1566 191.263 32.1566C190.536 32.1566 189.756 32.0759 188.868 31.8875V28.6576H188.921C190.106 28.9268 191.075 28.7922 191.532 28.0924C191.936 27.4733 191.855 26.612 191.425 25.4008L186.93 13.6118H191.236L194.358 22.6554H194.412L197.023 13.6118H201.33Z" fill="white"/>
<path d="M202.994 7.72123H201.726V7.05859H205.053V7.72123H203.784V10.9498H202.994V7.72123ZM205.575 7.05859H206.702L207.577 9.99111H207.591L208.479 7.05859H209.621V10.9498H208.888V8.0032H208.859L207.957 10.9498H207.21L206.322 8.0032H206.294V10.9498H205.575V7.05859Z" fill="white"/>
</svg>
