<svg width="14" height="12" viewBox="0 0 14 12" fill="none" xmlns="http://www.w3.org/2000/svg">
<path d="M0.72414 4.06913H11.5277L10.35 5.24673C10.2142 5.38254 10.1379 5.56673 10.1379 5.75879C10.1379 5.95085 10.2142 6.13504 10.35 6.27085C10.4858 6.40665 10.67 6.48295 10.8621 6.48295C11.0542 6.48295 11.2383 6.40665 11.3742 6.27085L13.788 3.85705C13.8552 3.7898 13.9085 3.70997 13.9449 3.62211C13.9813 3.53426 14.0001 3.44009 14.0001 3.34499C14.0001 3.24989 13.9813 3.15572 13.9449 3.06786C13.9085 2.98001 13.8552 2.90018 13.788 2.83293L11.3742 0.419132C11.2383 0.283326 11.0542 0.207031 10.8621 0.207031C10.67 0.207031 10.4858 0.283326 10.35 0.419132C10.2142 0.554938 10.1379 0.739131 10.1379 0.93119C10.1379 1.12325 10.2142 1.30744 10.35 1.44325L11.5277 2.62085H0.72414C0.532086 2.62085 0.347898 2.69714 0.212096 2.83294C0.0762931 2.96875 0 3.15294 0 3.34499C0 3.53704 0.0762931 3.72123 0.212096 3.85703C0.347898 3.99284 0.532086 4.06913 0.72414 4.06913Z" fill="black"/>
<path d="M13.2759 7.93091H2.47239L3.65002 6.75331C3.78583 6.6175 3.86212 6.43331 3.86212 6.24125C3.86212 6.04919 3.78583 5.865 3.65002 5.72919C3.51422 5.59339 3.33002 5.51709 3.13797 5.51709C2.94591 5.51709 2.76171 5.59339 2.62591 5.72919L0.212109 8.14299C0.144862 8.21023 0.0915192 8.29006 0.0551254 8.37792C0.0187317 8.46578 0 8.55995 0 8.65505C0 8.75015 0.0187317 8.84431 0.0551254 8.93217C0.0915192 9.02003 0.144862 9.09986 0.212109 9.16711L2.62591 11.5809C2.76171 11.7167 2.94591 11.793 3.13797 11.793C3.33002 11.793 3.51422 11.7167 3.65002 11.5809C3.78583 11.4451 3.86212 11.2609 3.86212 11.0688C3.86212 10.8768 3.78583 10.6926 3.65002 10.5568L2.47239 9.37919H13.2759C13.468 9.37919 13.6522 9.30289 13.788 9.16709C13.9238 9.03129 14.0001 8.8471 14.0001 8.65505C14.0001 8.46299 13.9238 8.27881 13.788 8.143C13.6522 8.0072 13.468 7.93091 13.2759 7.93091Z" fill="black"/>
</svg>
