<svg width="18" height="18" viewBox="0 0 18 18" fill="none" xmlns="http://www.w3.org/2000/svg">
<path d="M13.6846 11.9072C13.0965 11.3267 12.3624 11.3267 11.7781 11.9072C11.3323 12.3492 10.8866 12.7912 10.4484 13.2407C10.3285 13.3643 10.2274 13.3905 10.0813 13.3081C9.79287 13.1508 9.48573 13.0234 9.20856 12.8511C7.91632 12.0383 6.83383 10.9933 5.87495 9.81718C5.39926 9.23286 4.976 8.60734 4.6801 7.90316C4.62016 7.76083 4.6314 7.66719 4.74752 7.55107C5.19325 7.12033 5.62774 6.67834 6.06598 6.23636C6.67651 5.62208 6.67651 4.90292 6.06223 4.28489C5.71389 3.9328 5.36554 3.5882 5.0172 3.23611C4.65762 2.87653 4.30179 2.51321 3.93846 2.15737C3.3504 1.58429 2.61626 1.58429 2.03194 2.16112C1.58246 2.6031 1.15172 3.05632 0.694749 3.49081C0.271493 3.8916 0.0579921 4.38227 0.0130446 4.95535C-0.0581223 5.88801 0.170361 6.76824 0.492485 7.62599C1.15172 9.40141 2.15554 10.9783 3.37287 12.4241C5.0172 14.3793 6.97991 15.9263 9.27598 17.0425C10.3098 17.5444 11.381 17.9302 12.5459 17.9939C13.3475 18.0388 14.0442 17.8366 14.6023 17.211C14.9843 16.784 15.4151 16.3945 15.8196 15.9862C16.4189 15.3794 16.4226 14.6453 15.8271 14.046C15.1154 13.3306 14.4 12.6189 13.6846 11.9072Z" fill="white"/>
<path d="M12.9694 8.92198L14.3516 8.68601C14.1343 7.41624 13.535 6.26633 12.6248 5.3524C11.6622 4.38978 10.4449 3.78298 9.10395 3.5957L8.90918 4.98533C9.94672 5.13141 10.8906 5.59961 11.636 6.34499C12.3402 7.04917 12.8009 7.94063 12.9694 8.92198Z" fill="white"/>
<path d="M15.1307 2.9141C13.5351 1.31846 11.5162 0.310887 9.28755 0L9.09277 1.38963C11.018 1.65931 12.7635 2.53204 14.1419 3.90669C15.4491 5.21391 16.3068 6.86573 16.6177 8.68236L17.9999 8.44639C17.6365 6.34135 16.644 4.43108 15.1307 2.9141Z" fill="white"/>
</svg>
