<svg width="19" height="18" viewBox="0 0 19 18" fill="none" xmlns="http://www.w3.org/2000/svg">
<path d="M18.1874 16.1791L14.7273 12.7197C15.7759 11.3472 16.3511 9.68244 16.3513 7.92575C16.3513 5.80876 15.5266 3.81834 14.0291 2.32142C12.5319 0.824503 10.5413 0 8.42364 0C6.3062 0 4.31536 0.824503 2.81813 2.32142C-0.272711 5.41188 -0.272711 10.4401 2.81813 13.5301C4.31536 15.0273 6.3062 15.8518 8.42364 15.8518C10.1807 15.8515 11.8458 15.2765 13.2186 14.2281L16.6787 17.6875C16.8869 17.8958 17.1601 18 17.4331 18C17.7061 18 17.9793 17.8958 18.1874 17.6875C18.6042 17.2711 18.6042 16.5955 18.1874 16.1791ZM4.32682 12.0217C2.06795 9.7633 2.06821 6.08846 4.32682 3.8298C5.4211 2.73602 6.87613 2.13339 8.42364 2.13339C9.9714 2.13339 11.4262 2.73602 12.5204 3.8298C13.6147 4.92384 14.2175 6.37857 14.2175 7.92575C14.2175 9.47319 13.6147 10.9277 12.5204 12.0217C11.4262 13.1157 9.9714 13.7184 8.42364 13.7184C6.87613 13.7184 5.4211 13.1157 4.32682 12.0217Z" fill="white"/>
</svg>
